@startuml
class Token {
+UserId: uint
+: StandardClaims

}
class Account {
+: Model
+Email: string
+Password: string
+Token: string
+*Validate(): map[string]interface, bool
+*Create(): map[string]interface
}
class Building_Attributes {
+ID: int
+PosXY: string
+PosXYU: string
+PosZ: string
+PosZU: string
+Size: string
+SizeU: string
+Height: string
+HeightU: string
+Floors: string

}
class Building {
+ID: int
+IDJSON: string
+Name: string
+ParentID: string
+Category: string
+Domain: string
+DescriptionJSON: []string
+DescriptionDB: string
+Attributes: Building_Attributes
+Rooms: []*Room
+*Validate(): map[string]interface, bool
+*Create(): map[string]interface, string
+*FormQuery(): string
}
class Device_Attributes {
+ID: int
+PosXY: string
+PosXYU: string
+PosZ: string
+PosZU: string
+Template: string
+Orientation: string
+Size: string
+SizeUnit: string
+SizeU: string
+Slot: string
+PosU: string
+Height: string
+HeightU: string
+Vendor: string
+Type: string
+Model: string
+Serial: string

}
class Device {
+ID: int
+IDJSON: string
+Name: string
+ParentID: string
+Category: string
+Domain: string
+DescriptionJSON: []string
+DescriptionDB: string
+Attributes: Device_Attributes
+Subdevices: []*Subdevice
+*Validate(): map[string]interface, bool
+*Create(): map[string]interface, string
+*FormQuery(): string
}
class Rack_Attributes {
+ID: int
+PosXY: string
+PosXYU: string
+PosZ: string
+PosZU: string
+Template: string
+Orientation: string
+Size: string
+SizeU: string
+Height: string
+HeightU: string
+Vendor: string
+Type: string
+Model: string
+Serial: string

}
class Rack {
+ID: int
+IDJSON: string
+Name: string
+ParentID: string
+Category: string
+Domain: string
+DescriptionJSON: []string
+DescriptionDB: string
+Attributes: Rack_Attributes
+Devices: []*Device
+*Validate(): map[string]interface, bool
+*Create(): map[string]interface, string
+*FormQuery(): string
}
class Room {
+ID: int
+IDJSON: string
+Name: string
+ParentID: string
+Category: string
+Domain: string
+DescriptionJSON: []string
+DescriptionDB: string
+Attributes: Room_Attributes
+Racks: []*Rack
+*Validate(): map[string]interface, bool
+*Create(): map[string]interface, string
+*FormQuery(): string
}
class Room_Attributes {
+ID: int
+PosXY: string
+PosXYU: string
+PosZ: string
+PosZU: string
+Template: string
+Orientation: string
+Size: string
+SizeU: string
+Height: string
+HeightU: string
+Technical: string
+Reserved: string

}
class Site_Attributes {
+ID: int
+Orientation: string
+UsableColor: string
+ReservedColor: string
+TechnicalColor: string
+Address: string
+Zipcode: string
+City: string
+Country: string
+Gps: string

}
class Site {
+ID: int
+IDJSON: string
+Name: string
+Category: string
+Domain: string
+ParentID: string
+DescriptionJSON: []string
+DescriptionDB: string
+Attributes: Site_Attributes
+Buildings: []*Building
+*Validate(): map[string]interface, bool
+*Create(): map[string]interface, string
+*FormQuery(): string
}
class Subdevice_Attributes {
+ID: int
+PosXY: string
+PosXYU: string
+PosZ: string
+PosZU: string
+Template: string
+Orientation: string
+Size: string
+SizeUnit: string
+SizeU: string
+Slot: string
+PosU: string
+Height: string
+HeightU: string
+Vendor: string
+Type: string
+Model: string
+Serial: string

}
class Subdevice {
+ID: int
+IDJSON: string
+Name: string
+ParentID: string
+Category: string
+Domain: string
+DescriptionJSON: []string
+DescriptionDB: string
+Attributes: Subdevice_Attributes
+Subdevs1: []*Subdevice1
+*Validate(): map[string]interface, bool
+*Create(): map[string]interface, string
+*FormQuery(): string
}
class Subdevice1_Attributes {
+ID: int
+PosXY: string
+PosXYU: string
+PosZ: string
+PosZU: string
+Template: string
+Orientation: string
+Size: string
+SizeUnit: string
+SizeU: string
+Slot: string
+PosU: string
+Height: string
+HeightU: string
+Vendor: string
+Type: string
+Model: string
+Serial: string

}
class Subdevice1 {
+ID: int
+IDJSON: string
+Name: string
+ParentID: string
+Category: string
+Domain: string
+DescriptionJSON: []string
+DescriptionDB: string
+Attributes: Subdevice1_Attributes
+*Validate(): map[string]interface, bool
+*Create(): map[string]interface, string
+*FormQuery(): string
}
class Tenant {
+ID: int
+IDJSON: string
+Name: string
+Category: string
+Domain: string
+ParentID: int
+DescriptionJSON: []string
+DescriptionDB: string
+Attributes: Tenant_Attributes
+Sites: []*Site
+*Validate(): map[string]interface, bool
+*Create(): map[string]interface, string
+*FormQuery(): string
}
class Tenant_Attributes {
+ID: int
+Color: string
+MainContact: string
+MainPhone: string
+MainEmail: string

}
Building --> Building_Attributes
Device --> Device_Attributes
Rack --> Rack_Attributes
Room --> Room_Attributes
Site --> Site_Attributes
Subdevice --> Subdevice_Attributes
Subdevice1 --> Subdevice1_Attributes
Tenant --> Tenant_Attributes
@enduml